<?xml version="1.0" encoding="UTF-8" standalone="no"?><!DOCTYPE svg PUBLIC "-//W3C//DTD SVG 1.1//EN" "http://www.w3.org/Graphics/SVG/1.1/DTD/svg11.dtd"><svg width="100%" height="100%" viewBox="0 0 4167 4167" version="1.1" xmlns="http://www.w3.org/2000/svg" xmlns:xlink="http://www.w3.org/1999/xlink" xml:space="preserve" xmlns:serif="http://www.serif.com/" style="fill-rule:evenodd;clip-rule:evenodd;stroke-linecap:round;stroke-linejoin:round;stroke-miterlimit:1.5;"><circle cx="2083.33" cy="2083.33" r="1875" style="fill:#fafafa;"/><circle cx="2083.33" cy="2083.33" r="1875" style="fill:none;stroke:#ed3f1c;stroke-width:208.33px;"/><path d="M3409.16,757.508c365.871,365.872 68.83,1257 -662.913,1988.74c-731.743,731.743 -1622.87,1028.78 -1988.74,662.913c-365.871,-365.872 -68.83,-1257 662.913,-1988.74c731.743,-731.743 1622.87,-1028.78 1988.74,-662.913Z" style="fill:none;stroke:#ed3f1c;stroke-width:208.33px;"/><path d="M757.508,757.508c365.872,-365.871 1257,-68.83 1988.74,662.913c731.743,731.743 1028.78,1622.87 662.913,1988.74c-365.872,365.871 -1257,68.83 -1988.74,-662.913c-731.743,-731.743 -1028.78,-1622.87 -662.913,-1988.74Z" style="fill:none;stroke:#ed3f1c;stroke-width:208.33px;"/></svg>